<mxfile host="app.diagrams.net" modified="2022-12-02T14:03:08.627Z" agent="5.0 (Macintosh; Intel Mac OS X 10_15_7) AppleWebKit/537.36 (KHTML, like Gecko) Chrome/107.0.0.0 Safari/537.36" version="20.6.0" etag="cye4aB9FMEsKmZftZl-U" type="github" pages="4">
  <diagram id="JmbNH9plOv7im64DtWaO" name="access">
    <mxGraphModel dx="1406" dy="774" grid="1" gridSize="10" guides="1" tooltips="1" connect="1" arrows="1" fold="1" page="1" pageScale="1" pageWidth="827" pageHeight="1169" math="0" shadow="0">
      <root>
        <mxCell id="0" />
        <mxCell id="1" parent="0" />
        <mxCell id="x8goX8AUCKIJsK1haMdq-16" value="cas d&#39;extension générale" style="edgeStyle=orthogonalEdgeStyle;rounded=0;orthogonalLoop=1;jettySize=auto;html=1;" edge="1" parent="1" source="x8goX8AUCKIJsK1haMdq-4" target="x8goX8AUCKIJsK1haMdq-15">
          <mxGeometry relative="1" as="geometry" />
        </mxCell>
        <mxCell id="x8goX8AUCKIJsK1haMdq-4" value="" style="rounded=1;whiteSpace=wrap;html=1;" vertex="1" parent="1">
          <mxGeometry x="145" y="105" width="575" height="215" as="geometry" />
        </mxCell>
        <mxCell id="x8goX8AUCKIJsK1haMdq-10" value="inclus" style="edgeStyle=orthogonalEdgeStyle;rounded=0;orthogonalLoop=1;jettySize=auto;html=1;dashed=1;" edge="1" parent="1" source="x8goX8AUCKIJsK1haMdq-1" target="x8goX8AUCKIJsK1haMdq-8">
          <mxGeometry relative="1" as="geometry" />
        </mxCell>
        <mxCell id="x8goX8AUCKIJsK1haMdq-1" value="connexion" style="ellipse;whiteSpace=wrap;html=1;" vertex="1" parent="1">
          <mxGeometry x="320" y="130" width="173" height="60" as="geometry" />
        </mxCell>
        <mxCell id="x8goX8AUCKIJsK1haMdq-5" value="s&#39;inscrire" style="ellipse;whiteSpace=wrap;html=1;" vertex="1" parent="1">
          <mxGeometry x="315" y="240" width="183" height="50" as="geometry" />
        </mxCell>
        <mxCell id="x8goX8AUCKIJsK1haMdq-6" value="Eleve" style="shape=umlActor;verticalLabelPosition=bottom;verticalAlign=top;html=1;outlineConnect=0;fillColor=#f8cecc;strokeColor=#b85450;" vertex="1" parent="1">
          <mxGeometry x="50" y="475" width="80" height="130" as="geometry" />
        </mxCell>
        <mxCell id="x8goX8AUCKIJsK1haMdq-7" value="Tuteur" style="shape=umlActor;verticalLabelPosition=bottom;verticalAlign=top;html=1;outlineConnect=0;fillColor=#ffe6cc;strokeColor=#d79b00;" vertex="1" parent="1">
          <mxGeometry x="730" y="470" width="80" height="130" as="geometry" />
        </mxCell>
        <mxCell id="x8goX8AUCKIJsK1haMdq-8" value="vérifier son mdp" style="ellipse;whiteSpace=wrap;html=1;" vertex="1" parent="1">
          <mxGeometry x="560" y="130" width="125" height="60" as="geometry" />
        </mxCell>
        <mxCell id="x8goX8AUCKIJsK1haMdq-11" value="afficher erreur de connexion" style="ellipse;whiteSpace=wrap;html=1;" vertex="1" parent="1">
          <mxGeometry x="560" y="240" width="125" height="70" as="geometry" />
        </mxCell>
        <mxCell id="x8goX8AUCKIJsK1haMdq-12" value="" style="endArrow=none;dashed=1;html=1;dashPattern=1 3;strokeWidth=2;rounded=0;" edge="1" parent="1" source="x8goX8AUCKIJsK1haMdq-11" target="x8goX8AUCKIJsK1haMdq-1">
          <mxGeometry width="50" height="50" relative="1" as="geometry">
            <mxPoint x="481.5" y="210" as="sourcePoint" />
            <mxPoint x="531.5" y="160" as="targetPoint" />
          </mxGeometry>
        </mxCell>
        <mxCell id="x8goX8AUCKIJsK1haMdq-14" value="extension" style="edgeLabel;html=1;align=center;verticalAlign=middle;resizable=0;points=[];" vertex="1" connectable="0" parent="x8goX8AUCKIJsK1haMdq-12">
          <mxGeometry x="-0.1934" relative="1" as="geometry">
            <mxPoint as="offset" />
          </mxGeometry>
        </mxCell>
        <mxCell id="x8goX8AUCKIJsK1haMdq-15" value="" style="rounded=1;whiteSpace=wrap;html=1;" vertex="1" parent="1">
          <mxGeometry x="160" y="395" width="570" height="380" as="geometry" />
        </mxCell>
        <mxCell id="x8goX8AUCKIJsK1haMdq-17" value="3 système sur le tableau de bord" style="rounded=1;whiteSpace=wrap;html=1;fillColor=#99FF33;" vertex="1" parent="1">
          <mxGeometry x="200" y="395" width="490" height="20" as="geometry" />
        </mxCell>
        <mxCell id="x8goX8AUCKIJsK1haMdq-23" value="Compteur de messages non lus" style="ellipse;whiteSpace=wrap;html=1;" vertex="1" parent="1">
          <mxGeometry x="356" y="435" width="173" height="60" as="geometry" />
        </mxCell>
        <mxCell id="x8goX8AUCKIJsK1haMdq-24" value="consulter mes prochains events&lt;br&gt;(calendrier)" style="ellipse;whiteSpace=wrap;html=1;" vertex="1" parent="1">
          <mxGeometry x="348" y="525" width="194" height="60" as="geometry" />
        </mxCell>
        <mxCell id="x8goX8AUCKIJsK1haMdq-28" value="" style="endArrow=none;html=1;rounded=0;entryX=0;entryY=0.5;entryDx=0;entryDy=0;" edge="1" parent="1" target="x8goX8AUCKIJsK1haMdq-5">
          <mxGeometry width="50" height="50" relative="1" as="geometry">
            <mxPoint x="120" y="510" as="sourcePoint" />
            <mxPoint x="170" y="460" as="targetPoint" />
          </mxGeometry>
        </mxCell>
        <mxCell id="x8goX8AUCKIJsK1haMdq-29" value="" style="endArrow=none;html=1;rounded=0;entryX=0;entryY=0.5;entryDx=0;entryDy=0;exitX=1;exitY=0.3333333333333333;exitDx=0;exitDy=0;exitPerimeter=0;" edge="1" parent="1" source="x8goX8AUCKIJsK1haMdq-6">
          <mxGeometry width="50" height="50" relative="1" as="geometry">
            <mxPoint x="125" y="405" as="sourcePoint" />
            <mxPoint x="320" y="160" as="targetPoint" />
          </mxGeometry>
        </mxCell>
        <mxCell id="x8goX8AUCKIJsK1haMdq-31" value="personnellement" style="endArrow=none;html=1;rounded=0;entryX=0;entryY=0.5;entryDx=0;entryDy=0;" edge="1" parent="1" target="x8goX8AUCKIJsK1haMdq-23">
          <mxGeometry width="50" height="50" relative="1" as="geometry">
            <mxPoint x="130" y="515" as="sourcePoint" />
            <mxPoint x="180" y="465" as="targetPoint" />
          </mxGeometry>
        </mxCell>
        <mxCell id="x8goX8AUCKIJsK1haMdq-32" value="" style="endArrow=none;html=1;rounded=0;entryX=1;entryY=0.5;entryDx=0;entryDy=0;" edge="1" parent="1" target="x8goX8AUCKIJsK1haMdq-1">
          <mxGeometry width="50" height="50" relative="1" as="geometry">
            <mxPoint x="730" y="510" as="sourcePoint" />
            <mxPoint x="780" y="460" as="targetPoint" />
          </mxGeometry>
        </mxCell>
        <mxCell id="x8goX8AUCKIJsK1haMdq-33" value="" style="endArrow=none;html=1;rounded=0;entryX=0.967;entryY=0.32;entryDx=0;entryDy=0;entryPerimeter=0;" edge="1" parent="1" target="x8goX8AUCKIJsK1haMdq-5">
          <mxGeometry width="50" height="50" relative="1" as="geometry">
            <mxPoint x="740" y="520" as="sourcePoint" />
            <mxPoint x="503" y="170" as="targetPoint" />
          </mxGeometry>
        </mxCell>
        <mxCell id="x8goX8AUCKIJsK1haMdq-34" value="" style="endArrow=none;html=1;rounded=0;" edge="1" parent="1">
          <mxGeometry width="50" height="50" relative="1" as="geometry">
            <mxPoint x="529" y="465" as="sourcePoint" />
            <mxPoint x="740" y="515" as="targetPoint" />
          </mxGeometry>
        </mxCell>
        <mxCell id="x8goX8AUCKIJsK1haMdq-35" value="pour tout ses élèves" style="edgeLabel;html=1;align=center;verticalAlign=middle;resizable=0;points=[];" vertex="1" connectable="0" parent="x8goX8AUCKIJsK1haMdq-34">
          <mxGeometry x="-0.1767" y="1" relative="1" as="geometry">
            <mxPoint as="offset" />
          </mxGeometry>
        </mxCell>
        <mxCell id="x8goX8AUCKIJsK1haMdq-37" value="personnellement" style="endArrow=none;html=1;rounded=0;exitX=1;exitY=0.3333333333333333;exitDx=0;exitDy=0;exitPerimeter=0;entryX=0;entryY=0.5;entryDx=0;entryDy=0;" edge="1" parent="1" source="x8goX8AUCKIJsK1haMdq-6" target="x8goX8AUCKIJsK1haMdq-24">
          <mxGeometry width="50" height="50" relative="1" as="geometry">
            <mxPoint x="290" y="575" as="sourcePoint" />
            <mxPoint x="340" y="525" as="targetPoint" />
          </mxGeometry>
        </mxCell>
        <mxCell id="x8goX8AUCKIJsK1haMdq-39" value="pour tout ses élèves" style="endArrow=none;html=1;rounded=0;exitX=1;exitY=0.5;exitDx=0;exitDy=0;" edge="1" parent="1" source="x8goX8AUCKIJsK1haMdq-24">
          <mxGeometry width="50" height="50" relative="1" as="geometry">
            <mxPoint x="620" y="590" as="sourcePoint" />
            <mxPoint x="740" y="515" as="targetPoint" />
          </mxGeometry>
        </mxCell>
        <mxCell id="x8goX8AUCKIJsK1haMdq-45" value="inclus" style="edgeStyle=orthogonalEdgeStyle;rounded=0;orthogonalLoop=1;jettySize=auto;html=1;dashed=1;" edge="1" parent="1" source="x8goX8AUCKIJsK1haMdq-40" target="x8goX8AUCKIJsK1haMdq-43">
          <mxGeometry relative="1" as="geometry" />
        </mxCell>
        <mxCell id="x8goX8AUCKIJsK1haMdq-40" value="consulter le recap de mes taches" style="ellipse;whiteSpace=wrap;html=1;" vertex="1" parent="1">
          <mxGeometry x="348" y="605" width="194" height="60" as="geometry" />
        </mxCell>
        <mxCell id="x8goX8AUCKIJsK1haMdq-41" value="personnellement" style="endArrow=none;html=1;rounded=0;exitX=1;exitY=0.3333333333333333;exitDx=0;exitDy=0;exitPerimeter=0;entryX=0;entryY=0.5;entryDx=0;entryDy=0;" edge="1" parent="1" source="x8goX8AUCKIJsK1haMdq-6" target="x8goX8AUCKIJsK1haMdq-40">
          <mxGeometry width="50" height="50" relative="1" as="geometry">
            <mxPoint x="210" y="535" as="sourcePoint" />
            <mxPoint x="280" y="535" as="targetPoint" />
          </mxGeometry>
        </mxCell>
        <mxCell id="x8goX8AUCKIJsK1haMdq-42" value="pour tout ses élèves" style="endArrow=none;html=1;rounded=0;exitX=1;exitY=0.5;exitDx=0;exitDy=0;" edge="1" parent="1" source="x8goX8AUCKIJsK1haMdq-40">
          <mxGeometry width="50" height="50" relative="1" as="geometry">
            <mxPoint x="542" y="635" as="sourcePoint" />
            <mxPoint x="740" y="515" as="targetPoint" />
            <Array as="points">
              <mxPoint x="640" y="575" />
            </Array>
          </mxGeometry>
        </mxCell>
        <mxCell id="x8goX8AUCKIJsK1haMdq-43" value="lire une tâche" style="ellipse;whiteSpace=wrap;html=1;" vertex="1" parent="1">
          <mxGeometry x="348" y="715" width="194" height="60" as="geometry" />
        </mxCell>
        <mxCell id="x8goX8AUCKIJsK1haMdq-44" value="inclus" style="endArrow=classic;html=1;rounded=0;entryX=0.536;entryY=0.017;entryDx=0;entryDy=0;entryPerimeter=0;" edge="1" parent="1" target="x8goX8AUCKIJsK1haMdq-48">
          <mxGeometry width="50" height="50" relative="1" as="geometry">
            <mxPoint x="540" y="555" as="sourcePoint" />
            <mxPoint x="657.5" y="610" as="targetPoint" />
          </mxGeometry>
        </mxCell>
        <mxCell id="x8goX8AUCKIJsK1haMdq-46" value="inclus" style="endArrow=classic;html=1;rounded=0;dashed=1;exitX=0;exitY=0.5;exitDx=0;exitDy=0;entryX=0.5;entryY=0;entryDx=0;entryDy=0;" edge="1" parent="1" source="x8goX8AUCKIJsK1haMdq-23" target="x8goX8AUCKIJsK1haMdq-47">
          <mxGeometry width="50" height="50" relative="1" as="geometry">
            <mxPoint x="270" y="595" as="sourcePoint" />
            <mxPoint x="320" y="555" as="targetPoint" />
            <Array as="points">
              <mxPoint x="310" y="565" />
            </Array>
          </mxGeometry>
        </mxCell>
        <mxCell id="x8goX8AUCKIJsK1haMdq-47" value="lire l&#39;historique des messages&lt;br&gt;(non lus)" style="ellipse;whiteSpace=wrap;html=1;" vertex="1" parent="1">
          <mxGeometry x="170" y="665" width="194" height="60" as="geometry" />
        </mxCell>
        <mxCell id="x8goX8AUCKIJsK1haMdq-48" value="lire un event" style="ellipse;whiteSpace=wrap;html=1;" vertex="1" parent="1">
          <mxGeometry x="529" y="665" width="194" height="60" as="geometry" />
        </mxCell>
        <mxCell id="x8goX8AUCKIJsK1haMdq-49" value="Dupliquer" style="rounded=1;whiteSpace=wrap;html=1;fillColor=#99FF33;" vertex="1" parent="1">
          <mxGeometry x="197.5" y="105" width="490" height="20" as="geometry" />
        </mxCell>
      </root>
    </mxGraphModel>
  </diagram>
  <diagram id="aoGBFeXHN97kCr6dhZRX" name="gestionnaire tâche">
    <mxGraphModel dx="1406" dy="774" grid="1" gridSize="10" guides="1" tooltips="1" connect="1" arrows="1" fold="1" page="1" pageScale="1" pageWidth="827" pageHeight="1169" math="0" shadow="0">
      <root>
        <mxCell id="0" />
        <mxCell id="1" parent="0" />
        <mxCell id="mY1KriiPoyrHtgzHpoHn-2" style="edgeStyle=orthogonalEdgeStyle;rounded=0;orthogonalLoop=1;jettySize=auto;html=1;dashed=1;" edge="1" parent="1" source="V46Psp4QoL1s7z6FGZ3A-1">
          <mxGeometry relative="1" as="geometry">
            <mxPoint x="110" y="600" as="targetPoint" />
          </mxGeometry>
        </mxCell>
        <mxCell id="V46Psp4QoL1s7z6FGZ3A-1" value="Elève&lt;br&gt;" style="shape=umlActor;verticalLabelPosition=bottom;verticalAlign=top;html=1;outlineConnect=0;fillColor=#f8cecc;strokeColor=#b85450;" vertex="1" parent="1">
          <mxGeometry x="110" y="410" width="100" height="170" as="geometry" />
        </mxCell>
        <mxCell id="V46Psp4QoL1s7z6FGZ3A-2" value="tuteur" style="shape=umlActor;verticalLabelPosition=bottom;verticalAlign=top;html=1;outlineConnect=0;fillColor=#ffe6cc;strokeColor=#d79b00;" vertex="1" parent="1">
          <mxGeometry x="640" y="420" width="100" height="170" as="geometry" />
        </mxCell>
        <mxCell id="mY1KriiPoyrHtgzHpoHn-6" value="gestionnaire de tâche" style="swimlane;whiteSpace=wrap;html=1;fillColor=#99FF33;" vertex="1" parent="1">
          <mxGeometry x="270" y="120" width="270" height="570" as="geometry" />
        </mxCell>
        <mxCell id="mY1KriiPoyrHtgzHpoHn-8" value="Créer une tache" style="ellipse;whiteSpace=wrap;html=1;" vertex="1" parent="mY1KriiPoyrHtgzHpoHn-6">
          <mxGeometry x="84" y="60" width="120" height="80" as="geometry" />
        </mxCell>
        <mxCell id="mY1KriiPoyrHtgzHpoHn-9" value="Lire une tache" style="ellipse;whiteSpace=wrap;html=1;" vertex="1" parent="mY1KriiPoyrHtgzHpoHn-6">
          <mxGeometry x="84" y="170" width="120" height="80" as="geometry" />
        </mxCell>
        <mxCell id="mY1KriiPoyrHtgzHpoHn-10" value="modifier une tache" style="ellipse;whiteSpace=wrap;html=1;" vertex="1" parent="mY1KriiPoyrHtgzHpoHn-6">
          <mxGeometry x="84" y="270" width="120" height="80" as="geometry" />
        </mxCell>
        <mxCell id="mY1KriiPoyrHtgzHpoHn-11" value="supprimer une tache" style="ellipse;whiteSpace=wrap;html=1;" vertex="1" parent="mY1KriiPoyrHtgzHpoHn-6">
          <mxGeometry x="84" y="370" width="120" height="80" as="geometry" />
        </mxCell>
        <mxCell id="mY1KriiPoyrHtgzHpoHn-12" value="systeme de drag and drop" style="ellipse;whiteSpace=wrap;html=1;" vertex="1" parent="mY1KriiPoyrHtgzHpoHn-6">
          <mxGeometry x="84" y="480" width="120" height="80" as="geometry" />
        </mxCell>
        <mxCell id="mY1KriiPoyrHtgzHpoHn-16" value="" style="endArrow=none;html=1;rounded=0;entryX=1;entryY=0.5;entryDx=0;entryDy=0;exitX=0.25;exitY=0.1;exitDx=0;exitDy=0;exitPerimeter=0;" edge="1" parent="1" source="V46Psp4QoL1s7z6FGZ3A-2" target="mY1KriiPoyrHtgzHpoHn-8">
          <mxGeometry width="50" height="50" relative="1" as="geometry">
            <mxPoint x="390" y="440" as="sourcePoint" />
            <mxPoint x="440" y="390" as="targetPoint" />
          </mxGeometry>
        </mxCell>
        <mxCell id="mY1KriiPoyrHtgzHpoHn-17" value="" style="endArrow=none;html=1;rounded=0;entryX=1.017;entryY=0.588;entryDx=0;entryDy=0;entryPerimeter=0;exitX=0.25;exitY=0.1;exitDx=0;exitDy=0;exitPerimeter=0;" edge="1" parent="1" source="V46Psp4QoL1s7z6FGZ3A-2" target="mY1KriiPoyrHtgzHpoHn-9">
          <mxGeometry width="50" height="50" relative="1" as="geometry">
            <mxPoint x="390" y="440" as="sourcePoint" />
            <mxPoint x="440" y="390" as="targetPoint" />
          </mxGeometry>
        </mxCell>
        <mxCell id="mY1KriiPoyrHtgzHpoHn-18" value="" style="endArrow=none;html=1;rounded=0;entryX=1;entryY=0.5;entryDx=0;entryDy=0;exitX=0.25;exitY=0.1;exitDx=0;exitDy=0;exitPerimeter=0;" edge="1" parent="1" source="V46Psp4QoL1s7z6FGZ3A-2" target="mY1KriiPoyrHtgzHpoHn-10">
          <mxGeometry width="50" height="50" relative="1" as="geometry">
            <mxPoint x="390" y="440" as="sourcePoint" />
            <mxPoint x="440" y="390" as="targetPoint" />
          </mxGeometry>
        </mxCell>
        <mxCell id="mY1KriiPoyrHtgzHpoHn-19" value="" style="endArrow=none;html=1;rounded=0;entryX=1;entryY=0.5;entryDx=0;entryDy=0;exitX=0.25;exitY=0.1;exitDx=0;exitDy=0;exitPerimeter=0;" edge="1" parent="1" source="V46Psp4QoL1s7z6FGZ3A-2" target="mY1KriiPoyrHtgzHpoHn-11">
          <mxGeometry width="50" height="50" relative="1" as="geometry">
            <mxPoint x="660" y="440" as="sourcePoint" />
            <mxPoint x="440" y="390" as="targetPoint" />
          </mxGeometry>
        </mxCell>
        <mxCell id="mY1KriiPoyrHtgzHpoHn-20" value="" style="endArrow=none;html=1;rounded=0;exitX=1;exitY=0.5;exitDx=0;exitDy=0;entryX=0.25;entryY=0.1;entryDx=0;entryDy=0;entryPerimeter=0;" edge="1" parent="1" source="mY1KriiPoyrHtgzHpoHn-12" target="V46Psp4QoL1s7z6FGZ3A-2">
          <mxGeometry width="50" height="50" relative="1" as="geometry">
            <mxPoint x="540" y="620" as="sourcePoint" />
            <mxPoint x="590" y="570" as="targetPoint" />
          </mxGeometry>
        </mxCell>
        <mxCell id="mY1KriiPoyrHtgzHpoHn-21" value="" style="endArrow=none;html=1;rounded=0;exitX=0.75;exitY=0.1;exitDx=0;exitDy=0;exitPerimeter=0;entryX=0;entryY=0.5;entryDx=0;entryDy=0;" edge="1" parent="1" source="V46Psp4QoL1s7z6FGZ3A-1" target="mY1KriiPoyrHtgzHpoHn-8">
          <mxGeometry width="50" height="50" relative="1" as="geometry">
            <mxPoint x="390" y="440" as="sourcePoint" />
            <mxPoint x="440" y="390" as="targetPoint" />
          </mxGeometry>
        </mxCell>
        <mxCell id="mY1KriiPoyrHtgzHpoHn-22" value="" style="endArrow=none;html=1;rounded=0;exitX=0.75;exitY=0.1;exitDx=0;exitDy=0;exitPerimeter=0;entryX=0;entryY=0.5;entryDx=0;entryDy=0;" edge="1" parent="1" source="V46Psp4QoL1s7z6FGZ3A-1" target="mY1KriiPoyrHtgzHpoHn-9">
          <mxGeometry width="50" height="50" relative="1" as="geometry">
            <mxPoint x="390" y="440" as="sourcePoint" />
            <mxPoint x="440" y="390" as="targetPoint" />
          </mxGeometry>
        </mxCell>
        <mxCell id="mY1KriiPoyrHtgzHpoHn-23" value="" style="endArrow=none;html=1;rounded=0;exitX=0.75;exitY=0.1;exitDx=0;exitDy=0;exitPerimeter=0;entryX=0;entryY=0.5;entryDx=0;entryDy=0;" edge="1" parent="1" source="V46Psp4QoL1s7z6FGZ3A-1" target="mY1KriiPoyrHtgzHpoHn-10">
          <mxGeometry width="50" height="50" relative="1" as="geometry">
            <mxPoint x="390" y="440" as="sourcePoint" />
            <mxPoint x="440" y="390" as="targetPoint" />
          </mxGeometry>
        </mxCell>
        <mxCell id="mY1KriiPoyrHtgzHpoHn-24" value="" style="endArrow=none;html=1;rounded=0;exitX=0.75;exitY=0.1;exitDx=0;exitDy=0;exitPerimeter=0;entryX=0;entryY=0.5;entryDx=0;entryDy=0;" edge="1" parent="1" source="V46Psp4QoL1s7z6FGZ3A-1" target="mY1KriiPoyrHtgzHpoHn-11">
          <mxGeometry width="50" height="50" relative="1" as="geometry">
            <mxPoint x="390" y="440" as="sourcePoint" />
            <mxPoint x="440" y="390" as="targetPoint" />
          </mxGeometry>
        </mxCell>
        <mxCell id="mY1KriiPoyrHtgzHpoHn-25" value="" style="endArrow=none;html=1;rounded=0;exitX=0.75;exitY=0.1;exitDx=0;exitDy=0;exitPerimeter=0;entryX=0;entryY=0.5;entryDx=0;entryDy=0;" edge="1" parent="1" source="V46Psp4QoL1s7z6FGZ3A-1" target="mY1KriiPoyrHtgzHpoHn-12">
          <mxGeometry width="50" height="50" relative="1" as="geometry">
            <mxPoint x="220" y="560" as="sourcePoint" />
            <mxPoint x="270" y="510" as="targetPoint" />
          </mxGeometry>
        </mxCell>
      </root>
    </mxGraphModel>
  </diagram>
  <diagram name="Calendrier" id="9bo5lePYOyDKVHdIoB-N">
    <mxGraphModel dx="1406" dy="774" grid="1" gridSize="10" guides="1" tooltips="1" connect="1" arrows="1" fold="1" page="1" pageScale="1" pageWidth="827" pageHeight="1169" math="0" shadow="0">
      <root>
        <mxCell id="6OZmloAN0454OhiQK9Lf-0" />
        <mxCell id="6OZmloAN0454OhiQK9Lf-1" parent="6OZmloAN0454OhiQK9Lf-0" />
        <mxCell id="6OZmloAN0454OhiQK9Lf-2" style="edgeStyle=orthogonalEdgeStyle;rounded=0;orthogonalLoop=1;jettySize=auto;html=1;dashed=1;" edge="1" parent="6OZmloAN0454OhiQK9Lf-1" source="6OZmloAN0454OhiQK9Lf-3">
          <mxGeometry relative="1" as="geometry">
            <mxPoint x="110" y="600" as="targetPoint" />
          </mxGeometry>
        </mxCell>
        <mxCell id="6OZmloAN0454OhiQK9Lf-3" value="Elève&lt;br&gt;" style="shape=umlActor;verticalLabelPosition=bottom;verticalAlign=top;html=1;outlineConnect=0;fillColor=#f8cecc;strokeColor=#b85450;" vertex="1" parent="6OZmloAN0454OhiQK9Lf-1">
          <mxGeometry x="110" y="410" width="100" height="170" as="geometry" />
        </mxCell>
        <mxCell id="6OZmloAN0454OhiQK9Lf-4" value="tuteur" style="shape=umlActor;verticalLabelPosition=bottom;verticalAlign=top;html=1;outlineConnect=0;fillColor=#ffe6cc;strokeColor=#d79b00;" vertex="1" parent="6OZmloAN0454OhiQK9Lf-1">
          <mxGeometry x="640" y="420" width="100" height="170" as="geometry" />
        </mxCell>
        <mxCell id="6OZmloAN0454OhiQK9Lf-5" value="Calendrier" style="swimlane;whiteSpace=wrap;html=1;fillColor=#99FF33;" vertex="1" parent="6OZmloAN0454OhiQK9Lf-1">
          <mxGeometry x="270" y="120" width="270" height="570" as="geometry" />
        </mxCell>
        <mxCell id="6OZmloAN0454OhiQK9Lf-6" value="Créer un event" style="ellipse;whiteSpace=wrap;html=1;" vertex="1" parent="6OZmloAN0454OhiQK9Lf-5">
          <mxGeometry x="84" y="60" width="120" height="80" as="geometry" />
        </mxCell>
        <mxCell id="6OZmloAN0454OhiQK9Lf-7" value="lire un event" style="ellipse;whiteSpace=wrap;html=1;" vertex="1" parent="6OZmloAN0454OhiQK9Lf-5">
          <mxGeometry x="84" y="170" width="120" height="80" as="geometry" />
        </mxCell>
        <mxCell id="6OZmloAN0454OhiQK9Lf-8" value="modif un event" style="ellipse;whiteSpace=wrap;html=1;" vertex="1" parent="6OZmloAN0454OhiQK9Lf-5">
          <mxGeometry x="84" y="270" width="120" height="80" as="geometry" />
        </mxCell>
        <mxCell id="6OZmloAN0454OhiQK9Lf-9" value="supprimer un event" style="ellipse;whiteSpace=wrap;html=1;" vertex="1" parent="6OZmloAN0454OhiQK9Lf-5">
          <mxGeometry x="84" y="370" width="120" height="80" as="geometry" />
        </mxCell>
        <mxCell id="6OZmloAN0454OhiQK9Lf-11" value="" style="endArrow=none;html=1;rounded=0;entryX=1;entryY=0.5;entryDx=0;entryDy=0;exitX=0.25;exitY=0.1;exitDx=0;exitDy=0;exitPerimeter=0;" edge="1" parent="6OZmloAN0454OhiQK9Lf-1" source="6OZmloAN0454OhiQK9Lf-4" target="6OZmloAN0454OhiQK9Lf-6">
          <mxGeometry width="50" height="50" relative="1" as="geometry">
            <mxPoint x="390" y="440" as="sourcePoint" />
            <mxPoint x="440" y="390" as="targetPoint" />
          </mxGeometry>
        </mxCell>
        <mxCell id="6OZmloAN0454OhiQK9Lf-12" value="" style="endArrow=none;html=1;rounded=0;entryX=1.017;entryY=0.588;entryDx=0;entryDy=0;entryPerimeter=0;exitX=0.25;exitY=0.1;exitDx=0;exitDy=0;exitPerimeter=0;" edge="1" parent="6OZmloAN0454OhiQK9Lf-1" source="6OZmloAN0454OhiQK9Lf-4" target="6OZmloAN0454OhiQK9Lf-7">
          <mxGeometry width="50" height="50" relative="1" as="geometry">
            <mxPoint x="390" y="440" as="sourcePoint" />
            <mxPoint x="440" y="390" as="targetPoint" />
          </mxGeometry>
        </mxCell>
        <mxCell id="6OZmloAN0454OhiQK9Lf-13" value="" style="endArrow=none;html=1;rounded=0;entryX=1;entryY=0.5;entryDx=0;entryDy=0;exitX=0.25;exitY=0.1;exitDx=0;exitDy=0;exitPerimeter=0;" edge="1" parent="6OZmloAN0454OhiQK9Lf-1" source="6OZmloAN0454OhiQK9Lf-4" target="6OZmloAN0454OhiQK9Lf-8">
          <mxGeometry width="50" height="50" relative="1" as="geometry">
            <mxPoint x="390" y="440" as="sourcePoint" />
            <mxPoint x="440" y="390" as="targetPoint" />
          </mxGeometry>
        </mxCell>
        <mxCell id="6OZmloAN0454OhiQK9Lf-14" value="" style="endArrow=none;html=1;rounded=0;entryX=1;entryY=0.5;entryDx=0;entryDy=0;exitX=0.25;exitY=0.1;exitDx=0;exitDy=0;exitPerimeter=0;" edge="1" parent="6OZmloAN0454OhiQK9Lf-1" source="6OZmloAN0454OhiQK9Lf-4" target="6OZmloAN0454OhiQK9Lf-9">
          <mxGeometry width="50" height="50" relative="1" as="geometry">
            <mxPoint x="660" y="440" as="sourcePoint" />
            <mxPoint x="440" y="390" as="targetPoint" />
          </mxGeometry>
        </mxCell>
        <mxCell id="6OZmloAN0454OhiQK9Lf-16" value="" style="endArrow=none;html=1;rounded=0;exitX=0.75;exitY=0.1;exitDx=0;exitDy=0;exitPerimeter=0;entryX=0;entryY=0.5;entryDx=0;entryDy=0;" edge="1" parent="6OZmloAN0454OhiQK9Lf-1" source="6OZmloAN0454OhiQK9Lf-3" target="6OZmloAN0454OhiQK9Lf-6">
          <mxGeometry width="50" height="50" relative="1" as="geometry">
            <mxPoint x="390" y="440" as="sourcePoint" />
            <mxPoint x="440" y="390" as="targetPoint" />
          </mxGeometry>
        </mxCell>
        <mxCell id="6OZmloAN0454OhiQK9Lf-17" value="" style="endArrow=none;html=1;rounded=0;exitX=0.75;exitY=0.1;exitDx=0;exitDy=0;exitPerimeter=0;entryX=0;entryY=0.5;entryDx=0;entryDy=0;" edge="1" parent="6OZmloAN0454OhiQK9Lf-1" source="6OZmloAN0454OhiQK9Lf-3" target="6OZmloAN0454OhiQK9Lf-7">
          <mxGeometry width="50" height="50" relative="1" as="geometry">
            <mxPoint x="390" y="440" as="sourcePoint" />
            <mxPoint x="440" y="390" as="targetPoint" />
          </mxGeometry>
        </mxCell>
        <mxCell id="6OZmloAN0454OhiQK9Lf-18" value="" style="endArrow=none;html=1;rounded=0;exitX=0.75;exitY=0.1;exitDx=0;exitDy=0;exitPerimeter=0;entryX=0;entryY=0.5;entryDx=0;entryDy=0;" edge="1" parent="6OZmloAN0454OhiQK9Lf-1" source="6OZmloAN0454OhiQK9Lf-3" target="6OZmloAN0454OhiQK9Lf-8">
          <mxGeometry width="50" height="50" relative="1" as="geometry">
            <mxPoint x="390" y="440" as="sourcePoint" />
            <mxPoint x="440" y="390" as="targetPoint" />
          </mxGeometry>
        </mxCell>
        <mxCell id="6OZmloAN0454OhiQK9Lf-19" value="" style="endArrow=none;html=1;rounded=0;exitX=0.75;exitY=0.1;exitDx=0;exitDy=0;exitPerimeter=0;entryX=0;entryY=0.5;entryDx=0;entryDy=0;" edge="1" parent="6OZmloAN0454OhiQK9Lf-1" source="6OZmloAN0454OhiQK9Lf-3" target="6OZmloAN0454OhiQK9Lf-9">
          <mxGeometry width="50" height="50" relative="1" as="geometry">
            <mxPoint x="390" y="440" as="sourcePoint" />
            <mxPoint x="440" y="390" as="targetPoint" />
          </mxGeometry>
        </mxCell>
      </root>
    </mxGraphModel>
  </diagram>
  <diagram name="Chat" id="bHVI5X3kdvl5-eVCYC3F">
    <mxGraphModel dx="1406" dy="774" grid="1" gridSize="10" guides="1" tooltips="1" connect="1" arrows="1" fold="1" page="1" pageScale="1" pageWidth="827" pageHeight="1169" math="0" shadow="0">
      <root>
        <mxCell id="-L9hUrDSt0dJ781i3wqd-0" />
        <mxCell id="-L9hUrDSt0dJ781i3wqd-1" parent="-L9hUrDSt0dJ781i3wqd-0" />
        <mxCell id="-L9hUrDSt0dJ781i3wqd-2" style="edgeStyle=orthogonalEdgeStyle;rounded=0;orthogonalLoop=1;jettySize=auto;html=1;dashed=1;" edge="1" parent="-L9hUrDSt0dJ781i3wqd-1" source="-L9hUrDSt0dJ781i3wqd-3">
          <mxGeometry relative="1" as="geometry">
            <mxPoint x="110" y="600" as="targetPoint" />
          </mxGeometry>
        </mxCell>
        <mxCell id="-L9hUrDSt0dJ781i3wqd-3" value="Elève&lt;br&gt;" style="shape=umlActor;verticalLabelPosition=bottom;verticalAlign=top;html=1;outlineConnect=0;fillColor=#f8cecc;strokeColor=#b85450;" vertex="1" parent="-L9hUrDSt0dJ781i3wqd-1">
          <mxGeometry x="110" y="410" width="100" height="170" as="geometry" />
        </mxCell>
        <mxCell id="-L9hUrDSt0dJ781i3wqd-4" value="tuteur" style="shape=umlActor;verticalLabelPosition=bottom;verticalAlign=top;html=1;outlineConnect=0;fillColor=#ffe6cc;strokeColor=#d79b00;" vertex="1" parent="-L9hUrDSt0dJ781i3wqd-1">
          <mxGeometry x="640" y="420" width="100" height="170" as="geometry" />
        </mxCell>
        <mxCell id="-L9hUrDSt0dJ781i3wqd-5" value="Chat" style="swimlane;whiteSpace=wrap;html=1;fillColor=#99FF33;" vertex="1" parent="-L9hUrDSt0dJ781i3wqd-1">
          <mxGeometry x="270" y="120" width="270" height="570" as="geometry" />
        </mxCell>
        <mxCell id="-L9hUrDSt0dJ781i3wqd-6" value="message avec horodatage" style="ellipse;whiteSpace=wrap;html=1;" vertex="1" parent="-L9hUrDSt0dJ781i3wqd-5">
          <mxGeometry x="84" y="30" width="120" height="80" as="geometry" />
        </mxCell>
        <mxCell id="-L9hUrDSt0dJ781i3wqd-7" value="lire l&#39;histo des messages non lus" style="ellipse;whiteSpace=wrap;html=1;" vertex="1" parent="-L9hUrDSt0dJ781i3wqd-5">
          <mxGeometry x="84" y="120" width="120" height="80" as="geometry" />
        </mxCell>
        <mxCell id="-L9hUrDSt0dJ781i3wqd-8" value="lire un message avec photo" style="ellipse;whiteSpace=wrap;html=1;" vertex="1" parent="-L9hUrDSt0dJ781i3wqd-5">
          <mxGeometry x="84" y="210" width="120" height="80" as="geometry" />
        </mxCell>
        <mxCell id="-L9hUrDSt0dJ781i3wqd-9" value="supprimer un message" style="ellipse;whiteSpace=wrap;html=1;" vertex="1" parent="-L9hUrDSt0dJ781i3wqd-5">
          <mxGeometry x="84" y="300" width="120" height="80" as="geometry" />
        </mxCell>
        <mxCell id="ACwahnuMGQGZ2OzNCdmR-0" value="Créer un contact" style="ellipse;whiteSpace=wrap;html=1;" vertex="1" parent="-L9hUrDSt0dJ781i3wqd-5">
          <mxGeometry x="84" y="390" width="120" height="80" as="geometry" />
        </mxCell>
        <mxCell id="ACwahnuMGQGZ2OzNCdmR-1" value="Supprimer un contact" style="ellipse;whiteSpace=wrap;html=1;" vertex="1" parent="-L9hUrDSt0dJ781i3wqd-5">
          <mxGeometry x="84" y="490" width="120" height="80" as="geometry" />
        </mxCell>
        <mxCell id="-L9hUrDSt0dJ781i3wqd-10" value="" style="endArrow=none;html=1;rounded=0;entryX=1;entryY=0.5;entryDx=0;entryDy=0;exitX=0.25;exitY=0.1;exitDx=0;exitDy=0;exitPerimeter=0;" edge="1" parent="-L9hUrDSt0dJ781i3wqd-1" source="-L9hUrDSt0dJ781i3wqd-4" target="-L9hUrDSt0dJ781i3wqd-6">
          <mxGeometry width="50" height="50" relative="1" as="geometry">
            <mxPoint x="390" y="440" as="sourcePoint" />
            <mxPoint x="440" y="390" as="targetPoint" />
          </mxGeometry>
        </mxCell>
        <mxCell id="-L9hUrDSt0dJ781i3wqd-11" value="" style="endArrow=none;html=1;rounded=0;entryX=1.017;entryY=0.588;entryDx=0;entryDy=0;entryPerimeter=0;exitX=0.25;exitY=0.1;exitDx=0;exitDy=0;exitPerimeter=0;" edge="1" parent="-L9hUrDSt0dJ781i3wqd-1" source="-L9hUrDSt0dJ781i3wqd-4" target="-L9hUrDSt0dJ781i3wqd-7">
          <mxGeometry width="50" height="50" relative="1" as="geometry">
            <mxPoint x="390" y="440" as="sourcePoint" />
            <mxPoint x="440" y="390" as="targetPoint" />
          </mxGeometry>
        </mxCell>
        <mxCell id="-L9hUrDSt0dJ781i3wqd-12" value="" style="endArrow=none;html=1;rounded=0;entryX=1;entryY=0.5;entryDx=0;entryDy=0;exitX=0.25;exitY=0.1;exitDx=0;exitDy=0;exitPerimeter=0;" edge="1" parent="-L9hUrDSt0dJ781i3wqd-1" source="-L9hUrDSt0dJ781i3wqd-4" target="-L9hUrDSt0dJ781i3wqd-8">
          <mxGeometry width="50" height="50" relative="1" as="geometry">
            <mxPoint x="390" y="440" as="sourcePoint" />
            <mxPoint x="440" y="390" as="targetPoint" />
          </mxGeometry>
        </mxCell>
        <mxCell id="-L9hUrDSt0dJ781i3wqd-13" value="" style="endArrow=none;html=1;rounded=0;entryX=1;entryY=0.5;entryDx=0;entryDy=0;exitX=0.25;exitY=0.1;exitDx=0;exitDy=0;exitPerimeter=0;" edge="1" parent="-L9hUrDSt0dJ781i3wqd-1" source="-L9hUrDSt0dJ781i3wqd-4" target="-L9hUrDSt0dJ781i3wqd-9">
          <mxGeometry width="50" height="50" relative="1" as="geometry">
            <mxPoint x="660" y="440" as="sourcePoint" />
            <mxPoint x="440" y="390" as="targetPoint" />
          </mxGeometry>
        </mxCell>
        <mxCell id="-L9hUrDSt0dJ781i3wqd-14" value="" style="endArrow=none;html=1;rounded=0;exitX=0.75;exitY=0.1;exitDx=0;exitDy=0;exitPerimeter=0;entryX=0;entryY=0.5;entryDx=0;entryDy=0;" edge="1" parent="-L9hUrDSt0dJ781i3wqd-1" source="-L9hUrDSt0dJ781i3wqd-3" target="-L9hUrDSt0dJ781i3wqd-6">
          <mxGeometry width="50" height="50" relative="1" as="geometry">
            <mxPoint x="390" y="440" as="sourcePoint" />
            <mxPoint x="440" y="390" as="targetPoint" />
          </mxGeometry>
        </mxCell>
        <mxCell id="-L9hUrDSt0dJ781i3wqd-15" value="" style="endArrow=none;html=1;rounded=0;exitX=0.75;exitY=0.1;exitDx=0;exitDy=0;exitPerimeter=0;entryX=0;entryY=0.5;entryDx=0;entryDy=0;" edge="1" parent="-L9hUrDSt0dJ781i3wqd-1" source="-L9hUrDSt0dJ781i3wqd-3" target="-L9hUrDSt0dJ781i3wqd-7">
          <mxGeometry width="50" height="50" relative="1" as="geometry">
            <mxPoint x="390" y="440" as="sourcePoint" />
            <mxPoint x="440" y="390" as="targetPoint" />
          </mxGeometry>
        </mxCell>
        <mxCell id="-L9hUrDSt0dJ781i3wqd-16" value="" style="endArrow=none;html=1;rounded=0;exitX=0.75;exitY=0.1;exitDx=0;exitDy=0;exitPerimeter=0;entryX=0;entryY=0.5;entryDx=0;entryDy=0;" edge="1" parent="-L9hUrDSt0dJ781i3wqd-1" source="-L9hUrDSt0dJ781i3wqd-3" target="-L9hUrDSt0dJ781i3wqd-8">
          <mxGeometry width="50" height="50" relative="1" as="geometry">
            <mxPoint x="390" y="440" as="sourcePoint" />
            <mxPoint x="440" y="390" as="targetPoint" />
          </mxGeometry>
        </mxCell>
        <mxCell id="-L9hUrDSt0dJ781i3wqd-17" value="" style="endArrow=none;html=1;rounded=0;exitX=0.75;exitY=0.1;exitDx=0;exitDy=0;exitPerimeter=0;entryX=0;entryY=0.5;entryDx=0;entryDy=0;" edge="1" parent="-L9hUrDSt0dJ781i3wqd-1" source="-L9hUrDSt0dJ781i3wqd-3" target="-L9hUrDSt0dJ781i3wqd-9">
          <mxGeometry width="50" height="50" relative="1" as="geometry">
            <mxPoint x="390" y="440" as="sourcePoint" />
            <mxPoint x="440" y="390" as="targetPoint" />
          </mxGeometry>
        </mxCell>
        <mxCell id="ACwahnuMGQGZ2OzNCdmR-2" value="" style="endArrow=none;html=1;rounded=0;exitX=0.75;exitY=0.1;exitDx=0;exitDy=0;exitPerimeter=0;entryX=0;entryY=0.5;entryDx=0;entryDy=0;" edge="1" parent="-L9hUrDSt0dJ781i3wqd-1" source="-L9hUrDSt0dJ781i3wqd-3" target="ACwahnuMGQGZ2OzNCdmR-0">
          <mxGeometry width="50" height="50" relative="1" as="geometry">
            <mxPoint x="390" y="400" as="sourcePoint" />
            <mxPoint x="440" y="350" as="targetPoint" />
          </mxGeometry>
        </mxCell>
        <mxCell id="ACwahnuMGQGZ2OzNCdmR-3" value="" style="endArrow=none;html=1;rounded=0;exitX=1;exitY=0.5;exitDx=0;exitDy=0;entryX=0.25;entryY=0.1;entryDx=0;entryDy=0;entryPerimeter=0;" edge="1" parent="-L9hUrDSt0dJ781i3wqd-1" source="ACwahnuMGQGZ2OzNCdmR-0" target="-L9hUrDSt0dJ781i3wqd-4">
          <mxGeometry width="50" height="50" relative="1" as="geometry">
            <mxPoint x="390" y="400" as="sourcePoint" />
            <mxPoint x="440" y="350" as="targetPoint" />
          </mxGeometry>
        </mxCell>
        <mxCell id="ACwahnuMGQGZ2OzNCdmR-4" value="" style="endArrow=none;html=1;rounded=0;exitX=0.75;exitY=0.1;exitDx=0;exitDy=0;exitPerimeter=0;entryX=0;entryY=0.5;entryDx=0;entryDy=0;" edge="1" parent="-L9hUrDSt0dJ781i3wqd-1" source="-L9hUrDSt0dJ781i3wqd-3" target="ACwahnuMGQGZ2OzNCdmR-1">
          <mxGeometry width="50" height="50" relative="1" as="geometry">
            <mxPoint x="390" y="400" as="sourcePoint" />
            <mxPoint x="440" y="350" as="targetPoint" />
          </mxGeometry>
        </mxCell>
        <mxCell id="ACwahnuMGQGZ2OzNCdmR-5" value="" style="endArrow=none;html=1;rounded=0;exitX=1;exitY=0.5;exitDx=0;exitDy=0;entryX=0.25;entryY=0.1;entryDx=0;entryDy=0;entryPerimeter=0;" edge="1" parent="-L9hUrDSt0dJ781i3wqd-1" source="ACwahnuMGQGZ2OzNCdmR-1" target="-L9hUrDSt0dJ781i3wqd-4">
          <mxGeometry width="50" height="50" relative="1" as="geometry">
            <mxPoint x="390" y="400" as="sourcePoint" />
            <mxPoint x="440" y="350" as="targetPoint" />
          </mxGeometry>
        </mxCell>
      </root>
    </mxGraphModel>
  </diagram>
</mxfile>
